<svg width="290" height="290" viewBox="0 0 290 290" fill="none" xmlns="http://www.w3.org/2000/svg">
<path d="M178.859 34.0215C186.004 36.1986 192.856 39.0455 199.343 42.4912L227.284 21.5352L269.004 63.2549L247.896 91.3965C251.001 97.3446 253.606 103.595 255.654 110.093L290 115V174L255.978 178.859C253.815 185.956 250.992 192.764 247.578 199.211L247.79 199L269.004 227.284L227.284 269.004L199 247.79L199.211 247.578C192.764 250.992 185.956 253.815 178.859 255.978L174 290H115L110.093 255.654C103.595 253.606 97.3439 251.002 91.3955 247.896L63.2549 269.004L21.5361 227.284L42.4912 199.343C39.0455 192.856 36.1986 186.004 34.0215 178.859L0 174V115L34.3447 110.093C36.4413 103.44 39.1201 97.0465 42.3232 90.9717L21.5352 63.2549L63.2549 21.5352L90.9717 42.3232C97.0465 39.1201 103.44 36.4413 110.093 34.3447L115 0H174L178.859 34.0215ZM144.5 62C98.9365 62 62 98.9365 62 144.5C62 190.063 98.9365 227 144.5 227C190.063 227 227 190.063 227 144.5C227 98.9365 190.063 62 144.5 62Z" fill="#EEEEEE" fill-opacity="0.05"/>
</svg>
