<svg width="264" height="265" viewBox="0 0 264 265" fill="none" xmlns="http://www.w3.org/2000/svg">
<path d="M10.4688 213.104C10.7901 211.545 12.716 210.968 13.8418 212.094L52.9199 251.172C54.0451 252.298 53.4682 254.223 51.9092 254.545L2.69043 264.686C1.2829 264.976 0.0381666 263.731 0.328125 262.323L10.4688 213.104ZM184.944 34.8701C185.335 34.4796 185.968 34.4796 186.358 34.8701L229.885 78.3965C230.275 78.787 230.275 79.421 229.885 79.8115L60.0264 249.67C59.6359 250.06 59.0027 250.06 58.6123 249.67L15.085 206.143C14.6948 205.752 14.6949 205.119 15.085 204.729L184.944 34.8701ZM216.057 3.75684C219.962 -0.147889 226.293 -0.147924 230.198 3.75684L260.998 34.5566C264.903 38.4618 264.903 44.7931 260.998 48.6982L234.076 75.6191L189.136 30.6787L216.057 3.75684Z" fill="#EEEEEE" fill-opacity="0.05"/>
</svg>
