<svg width="255" height="288" viewBox="0 0 255 288" fill="none" xmlns="http://www.w3.org/2000/svg">
<path d="M159.292 0C165.626 6.45448e-05 170.761 5.13474 170.761 11.4688C170.761 17.8029 165.626 22.9384 159.292 22.9385H142.726V34.043C157.811 35.8471 172.086 40.2876 185.078 46.8887C183.349 44.5838 183.144 41.3539 184.805 38.7969C186.931 35.5231 191.308 34.5927 194.582 36.7188L214.789 49.8408C218.063 51.9668 218.993 56.3444 216.867 59.6182C215.1 62.3394 211.778 63.4395 208.826 62.5127C236.956 85.8873 254.867 121.134 254.867 160.566C254.867 230.946 197.813 288 127.434 288C57.054 288 6.80521e-05 230.946 0 160.566C0 95.3621 48.972 41.5977 112.142 34.043V22.9385H95.5752C89.241 22.9385 84.1064 17.8029 84.1064 11.4688C84.1066 5.1347 89.2411 0 95.5752 0H159.292ZM126.159 50.9736C66.3366 50.9737 17.8408 99.4694 17.8408 159.292C17.8409 219.115 66.3366 267.61 126.159 267.61C185.982 267.61 234.477 219.115 234.478 159.292C234.478 99.4693 185.982 50.9736 126.159 50.9736ZM126.159 84.1064C132.493 84.1066 137.629 89.2413 137.629 95.5752V154.48L179.232 196.084C183.711 200.563 183.711 207.825 179.232 212.304C174.754 216.782 167.492 216.782 163.013 212.304L118.769 168.06C117.783 167.228 116.939 166.233 116.279 165.116C114.903 162.867 114.374 160.248 114.69 157.713V95.5752C114.691 89.2412 119.825 84.1066 126.159 84.1064Z" fill="#EEEEEE" fill-opacity="0.05"/>
</svg>
