<svg width="290" height="289" viewBox="0 0 290 289" fill="none" xmlns="http://www.w3.org/2000/svg">
<path d="M189.721 17.0705C206.593 0.198216 231.25 -4.14731 252.131 4.03531L203.711 52.4556L213.422 76.9785L235.805 84.5495L284.573 35.7812C293.388 56.9055 289.201 82.1727 272.012 99.3615C256.34 115.033 233.952 119.896 214.112 113.951L45.7779 282.285C37.9675 290.096 25.3041 290.096 17.4937 282.285L6.79797 271.59C-1.01248 263.779 -1.01242 251.116 6.79797 243.305L175.132 74.9711C169.187 55.1306 174.049 32.743 189.721 17.0705ZM19.2317 241.786C11.5296 249.488 11.3931 261.841 18.9279 269.376C26.4627 276.91 38.8153 276.774 46.5175 269.072C54.2195 261.37 54.3552 249.018 46.8206 241.483C39.2859 233.948 26.934 234.084 19.2317 241.786Z" fill="#EEEEEE" fill-opacity="0.05"/>
</svg>
