<svg width="30" height="30" viewBox="0 0 30 30" fill="none" xmlns="http://www.w3.org/2000/svg">
<path d="M1.41456 1.4143C2.19561 0.633327 3.46196 0.633276 4.24299 1.4143L15.2031 12.3745L26.1633 1.4143C26.9444 0.633429 28.2107 0.63331 28.9917 1.4143C29.7724 2.19531 29.7725 3.46175 28.9917 4.24273L18.0316 15.2029L28.9917 26.163C29.7725 26.9441 29.7726 28.2105 28.9917 28.9915C28.2107 29.7724 26.9444 29.7723 26.1633 28.9915L15.2031 18.0313L4.24299 28.9915C3.46203 29.7724 2.19563 29.7722 1.41456 28.9915C0.63351 28.2104 0.63351 26.9441 1.41456 26.163L12.3747 15.2029L1.41456 4.24273C0.63351 3.46168 0.63351 2.19535 1.41456 1.4143Z" fill="#EEEEEE"/>
</svg>
