<svg width="27" height="15" viewBox="0 0 27 15" fill="none" xmlns="http://www.w3.org/2000/svg">
<path d="M13.4993 15.0001C13.2317 15.0001 12.9645 14.928 12.7278 14.7853C12.6261 14.7239 12.5294 14.6504 12.4417 14.5626L0.437772 2.55481C-0.1463 1.97037 -0.146438 1.02296 0.437772 0.438599C1.02206 -0.145702 1.96975 -0.145786 2.55398 0.438599L13.4993 11.3859L24.4436 0.438599C25.0283 -0.146188 25.9762 -0.146188 26.5608 0.438599C27.145 1.02335 27.1451 1.9711 26.5608 2.55579L14.5667 14.5538C14.5638 14.5568 14.5608 14.5597 14.5579 14.5626C14.2657 14.8549 13.8823 15.0002 13.4993 15.0001Z" fill="#EEEEEE" fill-opacity="0.75"/>
</svg>
