<svg width="27" height="15" viewBox="0 0 27 15" fill="none" xmlns="http://www.w3.org/2000/svg">
<path d="M13.4997 4.06398e-08C13.7674 3.66697e-08 14.0345 0.0721547 14.2712 0.214844C14.3729 0.276234 14.4696 0.349743 14.5573 0.4375L26.5613 12.4453C27.1453 13.0298 27.1455 13.9772 26.5613 14.5615C25.977 15.1458 25.0293 15.1459 24.445 14.5615L13.4997 3.61426L2.55539 14.5615C1.97075 15.1463 1.02284 15.1463 0.438204 14.5615C-0.146015 13.9768 -0.146122 13.029 0.438204 12.4443L12.4323 0.446289C12.4352 0.443357 12.4382 0.440414 12.4411 0.4375C12.7334 0.145234 13.1167 -8.8725e-05 13.4997 4.06398e-08Z" fill="#EEEEEE" fill-opacity="0.75"/>
</svg>
