<svg width="350" height="350" viewBox="0 0 350 350" fill="none" xmlns="http://www.w3.org/2000/svg">
<path d="M227.43 267.011C231.002 268.099 234.428 269.522 237.671 271.245L251.643 260.768L272.502 281.627L261.948 295.698C263.501 298.672 264.802 301.797 265.826 305.046L283 307.5V337L265.988 339.43C264.907 342.978 263.496 346.383 261.788 349.606L261.896 349.5L272.502 363.643L251.643 384.502L237.5 373.896L237.606 373.788C234.383 375.496 230.978 376.907 227.43 377.988L225 395H195.5L193.046 377.826C189.797 376.802 186.672 375.501 183.698 373.948L169.628 384.502L148.768 363.643L159.245 349.671C157.522 346.428 156.099 343.002 155.011 339.43L138 337V307.5L155.173 305.046C156.221 301.72 157.56 298.523 159.161 295.486L148.768 281.627L169.627 260.768L183.486 271.161C186.523 269.56 189.72 268.221 193.046 267.173L195.5 250H225L227.43 267.011ZM210.25 281C187.468 281 169 299.468 169 322.25C169 345.032 187.468 363.5 210.25 363.5C233.032 363.5 251.5 345.032 251.5 322.25C251.5 299.468 233.032 281 210.25 281ZM68.4297 195.011C72.0018 196.099 75.4279 197.522 78.6709 199.245L92.6426 188.768L113.502 209.627L102.948 223.698C104.501 226.672 105.802 229.797 106.826 233.046L124 235.5V265L106.988 267.43C105.907 270.978 104.496 274.383 102.788 277.606L102.896 277.5L113.502 291.643L92.6426 312.502L78.5 301.896L78.6064 301.788C75.3825 303.496 71.9782 304.907 68.4297 305.988L66 323H36.5L34.0459 305.826C30.7972 304.802 27.6721 303.501 24.6982 301.948L10.6279 312.502L-10.2324 291.643L0.245117 277.671C-1.4776 274.428 -2.90078 271.002 -3.98926 267.43L-21 265V235.5L-3.82715 233.046C-2.77898 229.72 -1.44021 226.523 0.161133 223.486L-10.2324 209.627L10.627 188.768L24.4863 199.161C27.5234 197.56 30.7202 196.221 34.0459 195.173L36.5 178H66L68.4297 195.011ZM352.43 194.011C356.002 195.099 359.428 196.522 362.671 198.245L376.643 187.768L397.502 208.627L386.948 222.698C388.501 225.672 389.802 228.797 390.826 232.046L408 234.5V264L390.988 266.43C389.907 269.978 388.496 273.383 386.788 276.606L386.896 276.5L397.502 290.643L376.643 311.502L362.5 300.896L362.606 300.788C359.383 302.496 355.978 303.907 352.43 304.988L350 322H320.5L318.046 304.826C314.797 303.802 311.672 302.501 308.698 300.948L294.628 311.502L273.768 290.643L284.245 276.671C282.522 273.428 281.099 270.002 280.011 266.43L263 264V234.5L280.173 232.046C281.221 228.72 282.56 225.523 284.161 222.486L273.768 208.627L294.627 187.768L308.486 198.161C311.523 196.56 314.72 195.221 318.046 194.173L320.5 177H350L352.43 194.011ZM51.25 209C28.4683 209 10 227.468 10 250.25C10 273.032 28.4683 291.5 51.25 291.5C74.0317 291.5 92.5 273.032 92.5 250.25C92.5 227.468 74.0317 209 51.25 209ZM335.25 208C312.468 208 294 226.468 294 249.25C294 272.032 312.468 290.5 335.25 290.5C358.032 290.5 376.5 272.032 376.5 249.25C376.5 226.468 358.032 208 335.25 208ZM191.43 122.011C195.002 123.099 198.428 124.522 201.671 126.245L215.643 115.768L236.502 136.627L225.948 150.698C227.501 153.672 228.802 156.797 229.826 160.046L247 162.5V192L229.988 194.43C228.907 197.978 227.496 201.383 225.788 204.606L225.896 204.5L236.502 218.643L215.643 239.502L201.5 228.896L201.606 228.788C198.383 230.496 194.978 231.907 191.43 232.988L189 250H159.5L157.046 232.826C153.797 231.802 150.672 230.501 147.698 228.948L133.628 239.502L112.768 218.643L123.245 204.671C121.522 201.428 120.099 198.002 119.011 194.43L102 192V162.5L119.173 160.046C120.221 156.72 121.56 153.523 123.161 150.486L112.768 136.627L133.627 115.768L147.486 126.161C150.523 124.56 153.72 123.221 157.046 122.173L159.5 105H189L191.43 122.011ZM174.25 136C151.468 136 133 154.468 133 177.25C133 200.032 151.468 218.5 174.25 218.5C197.032 218.5 215.5 200.032 215.5 177.25C215.5 154.468 197.032 136 174.25 136ZM312.43 50.0107C316.002 51.0992 319.428 52.5224 322.671 54.2451L336.643 43.7676L357.502 64.627L346.948 78.6982C348.501 81.6721 349.802 84.7972 350.826 88.0459L368 90.5V120L350.988 122.43C349.907 125.978 348.496 129.383 346.788 132.606L346.896 132.5L357.502 146.643L336.643 167.502L322.5 156.896L322.606 156.788C319.383 158.496 315.978 159.907 312.43 160.988L310 178H280.5L278.046 160.826C274.797 159.802 271.672 158.501 268.698 156.948L254.628 167.502L233.768 146.643L244.245 132.671C242.522 129.428 241.099 126.002 240.011 122.43L223 120V90.5L240.173 88.0459C241.221 84.7202 242.56 81.5234 244.161 78.4863L233.768 64.627L254.627 43.7676L268.486 54.1611C271.523 52.5598 274.72 51.221 278.046 50.1729L280.5 33H310L312.43 50.0107ZM30.4297 45.0107C34.0018 46.0992 37.4279 47.5224 40.6709 49.2451L54.6426 38.7676L75.502 59.627L64.9482 73.6982C66.5006 76.6721 67.8023 79.7972 68.8262 83.0459L86 85.5V115L68.9883 117.43C67.907 120.978 66.4955 124.383 64.7881 127.606L64.8955 127.5L75.502 141.643L54.6426 162.502L40.5 151.896L40.6064 151.788C37.3825 153.496 33.9782 154.907 30.4297 155.988L28 173H-1.5L-3.9541 155.826C-7.20275 154.802 -10.3279 153.501 -13.3018 151.948L-27.3721 162.502L-48.2324 141.643L-37.7549 127.671C-39.4776 124.428 -40.9008 121.002 -41.9893 117.43L-59 115V85.5L-41.8271 83.0459C-40.779 79.7202 -39.4402 76.5234 -37.8389 73.4863L-48.2324 59.627L-27.373 38.7676L-13.5137 49.1611C-10.4766 47.5598 -7.27984 46.221 -3.9541 45.1729L-1.5 28H28L30.4297 45.0107ZM295.25 64C272.468 64 254 82.4683 254 105.25C254 128.032 272.468 146.5 295.25 146.5C318.032 146.5 336.5 128.032 336.5 105.25C336.5 82.4683 318.032 64 295.25 64ZM13.25 59C-9.53175 59 -28 77.4683 -28 100.25C-28 123.032 -9.53175 141.5 13.25 141.5C36.0317 141.5 54.5 123.032 54.5 100.25C54.5 77.4683 36.0317 59 13.25 59ZM155.43 -27.9893C159.002 -26.9008 162.428 -25.4776 165.671 -23.7549L179.643 -34.2324L200.502 -13.373L189.948 0.698242C191.501 3.67208 192.802 6.79725 193.826 10.0459L211 12.5V42L193.988 44.4297C192.907 47.9782 191.496 51.3825 189.788 54.6064L189.896 54.5L200.502 68.6426L179.643 89.502L165.5 78.8955L165.606 78.7881C162.383 80.4955 158.978 81.907 155.43 82.9883L153 100H123.5L121.046 82.8262C117.797 81.8023 114.672 80.5006 111.698 78.9482L97.6279 89.502L76.7676 68.6426L87.2451 54.6709C85.5224 51.4279 84.0992 48.0018 83.0107 44.4297L66 42V12.5L83.1729 10.0459C84.221 6.72016 85.5598 3.52337 87.1611 0.486328L76.7676 -13.373L97.627 -34.2324L111.486 -23.8389C114.523 -25.4402 117.72 -26.779 121.046 -27.8271L123.5 -45H153L155.43 -27.9893ZM138.25 -14C115.468 -14 97 4.46825 97 27.25C97 50.0317 115.468 68.5 138.25 68.5C161.032 68.5 179.5 50.0317 179.5 27.25C179.5 4.46825 161.032 -14 138.25 -14Z" fill="#EEEEEE" fill-opacity="0.05"/>
</svg>
