<svg width="288" height="288" viewBox="0 0 288 288" fill="none" xmlns="http://www.w3.org/2000/svg">
<path d="M134.949 0C139.948 0.000262672 144 4.05304 144 9.05176C144 14.0506 139.947 18.1025 134.948 18.1025H33.1025C24.8187 18.1028 18.1039 24.8188 18.1035 33.1025V254.074C18.1035 262.358 24.8192 269.074 33.1035 269.074H254.074C262.358 269.074 269.074 262.358 269.074 254.074V153.463C269.074 148.237 273.311 144 278.537 144C283.763 144 288 148.237 288 153.463V263C288 276.807 276.807 288 263 288H25C11.1929 288 0 276.807 0 263V25C0.000246747 11.1931 11.193 0 25 0H134.949ZM56.1445 198.327C56.4661 196.769 58.3929 196.193 59.5195 197.317L90.7412 228.493C91.8678 229.618 91.2907 231.543 89.7305 231.864L50.4062 239.954C48.9979 240.244 47.7519 239 48.042 237.594L56.1445 198.327ZM199.72 51.3604C200.11 50.9702 200.744 50.9705 201.135 51.3604L236.7 86.873C237.091 87.2632 237.091 87.8959 236.7 88.2861L97.1826 227.6C96.7919 227.99 96.1584 227.99 95.7676 227.6L60.2021 192.087C59.8116 191.697 59.8116 191.064 60.2021 190.674L199.72 51.3604ZM224.188 26.9268C228.097 23.0244 234.434 23.0246 238.342 26.9268L261.169 49.7217C265.077 53.6241 265.077 59.9512 261.169 63.8535L240.274 84.7168L203.295 47.791L224.188 26.9268Z" fill="#EEEEEE" fill-opacity="0.05"/>
</svg>
