<svg width="152" height="152" viewBox="0 0 152 152" fill="none" xmlns="http://www.w3.org/2000/svg">
<path d="M75.3022 0.286255C80.9461 0.286469 85.521 4.86207 85.521 10.506V65.2716H140.811C146.455 65.2716 151.031 69.8473 151.031 75.4913C151.031 81.1352 146.455 85.7101 140.811 85.7101H85.521V141C85.521 146.644 80.9461 151.22 75.3022 151.22C69.6582 151.22 65.0825 146.644 65.0825 141V85.7101H10.3169C4.67301 85.7101 0.0974318 81.1352 0.097168 75.4913C0.097168 69.8473 4.67285 65.2716 10.3169 65.2716H65.0825V10.506C65.0825 4.86194 69.6582 0.286255 75.3022 0.286255Z" fill="#EEEEEE" fill-opacity="0.05"/>
</svg>
