<svg width="1200" height="400" viewBox="0 0 1200 400" fill="none" xmlns="http://www.w3.org/2000/svg">
<rect width="1200" height="400" fill="url(#paint0_linear_425_3)"/>
<path d="M178.71 154.866L151.139 208.814V245H135.233V209.079L107.398 154.866H124.364L143.849 193.305L162.274 154.866H178.71ZM237.979 207.356V215.309C237.979 224.676 235.416 232.187 230.291 237.842C225.165 243.498 217.919 246.326 208.552 246.326C199.185 246.326 191.939 243.498 186.814 237.842C181.689 232.187 179.126 224.676 179.126 215.309V207.356C179.126 197.989 181.645 190.522 186.682 184.955C191.807 179.299 199.097 176.471 208.552 176.471C218.008 176.471 225.254 179.299 230.291 184.955C235.416 190.522 237.979 197.989 237.979 207.356ZM222.338 207.356C222.338 201.965 221.145 197.768 218.759 194.763C216.373 191.67 212.971 190.124 208.552 190.124C204.134 190.124 200.732 191.67 198.346 194.763C195.96 197.768 194.767 201.965 194.767 207.356V215.309C194.767 220.699 195.96 224.941 198.346 228.034C200.732 231.126 204.134 232.673 208.552 232.673C212.971 232.673 216.373 231.126 218.759 228.034C221.145 224.941 222.338 220.699 222.338 215.309V207.356ZM295.101 245V236.119C291.036 239.654 287.236 242.261 283.701 243.94C280.167 245.53 276.588 246.326 272.965 246.326C266.956 246.326 262.317 244.293 259.047 240.228C255.777 236.075 254.143 230.287 254.143 222.864V177.797H269.386V221.008C269.386 228.431 272.125 232.143 277.604 232.143C279.813 232.143 282.199 231.612 284.762 230.552C287.413 229.492 290.594 227.459 294.305 224.455V177.797H309.549V245H295.101ZM368.446 191.715C364.292 191.715 360.316 192.377 356.516 193.703C352.805 194.94 349.226 196.972 345.78 199.8V245H330.536V177.797H344.984V188.136C349.491 183.894 353.512 180.89 357.046 179.122C360.581 177.355 364.381 176.471 368.446 176.471V191.715ZM383.784 245V154.866H411.222C417.938 154.866 423.24 155.838 427.128 157.782C431.105 159.726 433.933 162.465 435.612 166C437.379 169.535 438.263 173.688 438.263 178.46V182.171C438.263 189.152 435.258 194.498 429.249 198.21C433.491 199.889 436.716 202.319 438.925 205.5C441.135 208.681 442.239 212.481 442.239 216.899V220.611C442.239 225.471 441.355 229.757 439.588 233.468C437.821 237.091 434.905 239.919 430.84 241.951C426.775 243.984 421.34 245 414.536 245H383.784ZM411.222 169.446H399.69V191.98H411.222C414.757 191.98 417.408 191.184 419.175 189.594C421.031 187.915 421.959 185.662 421.959 182.834V178.46C421.959 175.632 421.031 173.423 419.175 171.832C417.408 170.241 414.757 169.446 411.222 169.446ZM414.536 206.56H399.69V230.419H414.536C418.247 230.419 421.075 229.536 423.019 227.768C424.963 226.001 425.935 223.615 425.935 220.611V216.237C425.935 213.232 424.963 210.89 423.019 209.211C421.075 207.444 418.247 206.56 414.536 206.56ZM497.242 191.715C493.089 191.715 489.113 192.377 485.313 193.703C481.601 194.94 478.023 196.972 474.576 199.8V245H459.333V177.797H473.781V188.136C478.288 183.894 482.308 180.89 485.843 179.122C489.378 177.355 493.178 176.471 497.242 176.471V191.715ZM561.625 241.156C557.03 243.012 552.7 244.337 548.635 245.133C544.57 245.928 540.726 246.326 537.103 246.326C527.117 246.326 519.562 243.498 514.437 237.842C509.311 232.187 506.749 224.676 506.749 215.309V207.356C506.749 201.082 507.898 195.647 510.195 191.052C512.493 186.457 515.762 182.878 520.004 180.315C524.245 177.753 529.238 176.471 534.982 176.471C539.666 176.471 544.04 177.443 548.105 179.387C552.258 181.243 555.616 184.203 558.178 188.268C560.829 192.245 562.155 197.37 562.155 203.644C562.155 205.5 562.022 207.488 561.757 209.609C561.492 211.641 561.05 213.806 560.432 216.104H521.462C521.639 221.583 523.008 225.692 525.571 228.431C528.134 231.171 532.243 232.54 537.898 232.54C540.903 232.54 543.995 232.187 547.177 231.48C550.446 230.773 553.804 229.712 557.251 228.299L561.625 241.156ZM534.982 189.329C530.917 189.329 527.736 190.654 525.438 193.305C523.229 195.868 521.948 199.579 521.594 204.44H547.044C547.133 203.998 547.177 203.6 547.177 203.247C547.177 202.805 547.177 202.407 547.177 202.054C547.177 197.812 545.984 194.631 543.598 192.51C541.212 190.389 538.34 189.329 534.982 189.329ZM630.615 245.663C626.109 245.663 622.485 244.735 619.746 242.879C617.095 241.023 615.151 238.726 613.914 235.987C610.114 239.521 606.447 242.128 602.912 243.807C599.377 245.486 595.578 246.326 591.513 246.326C585.592 246.326 581.218 244.426 578.39 240.626C575.651 236.826 574.281 232.01 574.281 226.178C574.281 222.29 574.988 218.888 576.402 215.971C577.904 212.967 580.334 210.625 583.692 208.946C587.05 207.267 591.645 206.428 597.478 206.428C599.775 206.428 602.161 206.605 604.635 206.958C607.11 207.223 609.584 207.577 612.058 208.018V200.198C612.058 196.486 611.042 193.968 609.01 192.643C606.977 191.229 604.238 190.522 600.791 190.522C598.14 190.522 595.224 190.875 592.043 191.582C588.95 192.289 585.592 193.394 581.969 194.896L577.595 181.906C586.52 178.283 594.606 176.471 601.852 176.471C608.391 176.471 613.428 177.576 616.963 179.785C620.586 181.994 623.104 184.91 624.518 188.533C625.932 192.156 626.639 196.045 626.639 200.198V226.045C626.639 227.371 626.992 228.652 627.699 229.889C628.494 231.038 629.997 231.612 632.206 231.612H633.664V245.663H630.615ZM588.994 225.913C588.994 228.299 589.525 230.199 590.585 231.612C591.645 232.938 593.192 233.601 595.224 233.601C597.257 233.601 599.554 233.07 602.117 232.01C604.68 230.95 607.993 228.475 612.058 224.587V218.888C607.463 218.092 602.956 217.695 598.538 217.695C595.092 217.695 592.617 218.402 591.115 219.815C589.701 221.229 588.994 223.262 588.994 225.913ZM687.06 245L670.491 217.032C667.84 219.683 665.057 222.334 662.141 224.985V245H646.897V146.913H662.141V208.151C667.177 203.026 671.507 198.121 675.13 193.438C678.842 188.666 682.244 183.452 685.337 177.797H702.834C699.917 183.099 696.736 188.136 693.29 192.908C689.844 197.679 686.044 202.495 681.891 207.356L705.485 245H687.06Z" fill="#EEEEEE"/>
<path d="M1152.56 200.5C1152.56 293.319 1077.32 368.564 984.5 368.564C891.68 368.564 816.436 293.319 816.436 200.5C816.436 107.681 891.68 32.4357 984.5 32.4357C1077.32 32.4357 1152.56 107.681 1152.56 200.5ZM823.987 200.5C823.987 289.149 895.851 361.013 984.5 361.013C1073.15 361.013 1145.01 289.149 1145.01 200.5C1145.01 111.851 1073.15 39.9867 984.5 39.9867C895.851 39.9867 823.987 111.851 823.987 200.5Z" fill="#EEEEEE" fill-opacity="0.25"/>
<path d="M984.5 34.8714C984.5 32.181 986.682 29.9927 989.371 30.0696C1022.27 31.0096 1054.23 41.4549 1081.37 60.1941C1109.85 79.8571 1131.67 107.721 1143.94 140.082C1156.2 172.444 1158.32 207.771 1150.03 241.369C1142.12 273.389 1125.11 302.394 1101.1 324.901C1099.13 326.741 1096.05 326.548 1094.27 324.533L1091.59 321.512C1089.81 319.497 1090 316.424 1091.96 314.579C1113.88 293.929 1129.42 267.372 1136.65 238.067C1144.28 207.184 1142.33 174.711 1131.05 144.964C1119.78 115.218 1099.72 89.6055 1073.55 71.5314C1048.71 54.3811 1019.47 44.7886 989.371 43.8528C986.682 43.7692 984.5 41.5961 984.5 38.9057L984.5 34.8714Z" fill="#EEEEEE"/>
<path d="M956.258 194.125C956.258 201.395 954.544 206.821 951.117 210.404C947.69 213.987 942.86 215.779 936.629 215.779C934.448 215.779 932.189 215.519 929.852 215C927.515 214.481 924.893 213.546 921.985 212.196L925.334 204.173C927.671 205.263 929.722 206.042 931.488 206.51C933.305 206.925 934.941 207.133 936.395 207.133C939.667 207.133 942.289 206.146 944.262 204.173C946.288 202.2 947.3 198.85 947.3 194.125V191.321C945.535 192.93 943.665 194.125 941.692 194.904C939.771 195.683 937.823 196.072 935.85 196.072C932.786 196.072 930.086 195.371 927.749 193.969C925.464 192.567 923.699 190.62 922.452 188.127C921.206 185.635 920.583 182.753 920.583 179.481V177.923C920.583 175.015 921.284 172.289 922.686 169.744C924.088 167.2 926.087 165.149 928.684 163.591C931.28 162.033 934.37 161.254 937.953 161.254C943.717 161.254 948.209 163.201 951.428 167.096C954.648 170.991 956.258 176.339 956.258 183.142V194.125ZM929.696 179.481C929.696 181.87 930.346 183.843 931.644 185.401C932.994 186.907 934.863 187.66 937.252 187.66C940.939 187.66 944.288 186.258 947.3 183.454V183.142C947.3 178.676 946.469 175.353 944.808 173.172C943.198 170.991 940.861 169.9 937.797 169.9C935.253 169.9 933.254 170.731 931.8 172.393C930.398 174.055 929.696 175.898 929.696 177.923V179.481ZM974.277 184.778H964.852V175.509H974.277V184.778ZM974.277 215H964.852V205.731H974.277V215ZM1012.52 200.59C1012.52 203.342 1011.95 205.887 1010.8 208.223C1009.66 210.508 1007.82 212.352 1005.27 213.754C1002.78 215.104 999.432 215.779 995.225 215.779C992.837 215.779 990.344 215.493 987.748 214.922C985.203 214.351 982.399 213.39 979.335 212.04L982.217 204.017C984.97 205.004 987.28 205.783 989.15 206.354C991.071 206.873 992.992 207.133 994.914 207.133C997.666 207.133 999.743 206.588 1001.15 205.497C1002.6 204.355 1003.33 202.589 1003.33 200.2V199.11C1003.33 197.137 1002.7 195.553 1001.46 194.358C1000.26 193.112 998.393 192.489 995.848 192.489H987.592V184.077H995.848C998.289 184.077 1000.08 183.505 1001.22 182.363C1002.37 181.169 1002.94 179.637 1002.94 177.767V176.677C1002.94 174.288 1002.26 172.575 1000.91 171.536C999.613 170.445 997.692 169.9 995.147 169.9C993.33 169.9 991.487 170.16 989.617 170.679C987.8 171.147 985.593 171.874 982.996 172.86L980.114 164.837C983.022 163.487 985.722 162.552 988.215 162.033C990.708 161.514 993.122 161.254 995.459 161.254C999.458 161.254 1002.68 161.929 1005.12 163.279C1007.56 164.63 1009.32 166.447 1010.41 168.732C1011.56 171.017 1012.13 173.535 1012.13 176.287V177.378C1012.13 179.819 1011.5 181.974 1010.26 183.843C1009.06 185.66 1007.48 187.114 1005.51 188.205C1007.64 189.347 1009.32 190.879 1010.57 192.801C1011.87 194.67 1012.52 196.903 1012.52 199.499V200.59ZM1051.15 170.056C1047.62 177.534 1044.61 185.037 1042.11 192.567C1039.67 200.045 1037.73 207.522 1036.27 215H1026.46C1027.91 207.626 1029.83 200.252 1032.22 192.879C1034.61 185.505 1037.55 178.157 1041.02 170.835H1018.28V162.033H1051.15V170.056Z" fill="#FFBB55"/>
<path d="M955.121 241.326L955.791 230.412H967.107V233.09H958.369L957.967 239.619C958.949 239.284 960.01 239.117 961.148 239.117C963.246 239.117 964.92 239.675 966.17 240.791C967.42 241.907 968.045 243.558 968.045 245.746V246.75C968.045 248.737 967.465 250.366 966.304 251.638C965.143 252.888 963.279 253.513 960.713 253.513C959.708 253.513 958.659 253.402 957.565 253.178C956.494 252.933 955.378 252.553 954.217 252.04L955.121 249.629C956.215 250.098 957.208 250.433 958.101 250.634C958.994 250.812 959.853 250.902 960.679 250.902C962.063 250.902 963.146 250.589 963.927 249.964C964.708 249.317 965.099 248.246 965.099 246.75V245.746C965.099 244.518 964.741 243.536 964.027 242.799C963.335 242.063 962.275 241.695 960.847 241.695C960.177 241.695 959.519 241.784 958.871 241.962C958.224 242.119 957.543 242.353 956.829 242.665L955.121 241.326ZM974.568 239.686H971.488V236.606H974.568V239.686ZM974.568 253.178H971.488V250.132H974.568V253.178ZM994.234 239.284V244.273C994.234 247.308 993.553 249.607 992.192 251.17C990.83 252.732 988.933 253.513 986.5 253.513C984.067 253.513 982.17 252.732 980.808 251.17C979.469 249.607 978.799 247.308 978.799 244.273V239.284C978.799 236.271 979.48 233.983 980.842 232.42C982.203 230.858 984.089 230.077 986.5 230.077C988.933 230.077 990.83 230.858 992.192 232.42C993.553 233.983 994.234 236.271 994.234 239.284ZM991.288 239.284C991.288 236.963 990.864 235.289 990.015 234.262C989.19 233.235 988.018 232.722 986.5 232.722C985.004 232.722 983.833 233.235 982.984 234.262C982.159 235.289 981.746 236.963 981.746 239.284V244.273C981.746 246.572 982.159 248.257 982.984 249.328C983.833 250.377 985.004 250.902 986.5 250.902C988.018 250.902 989.19 250.377 990.015 249.328C990.864 248.257 991.288 246.572 991.288 244.273V239.284ZM1014.77 239.284V244.273C1014.77 247.308 1014.09 249.607 1012.72 251.17C1011.36 252.732 1009.47 253.513 1007.03 253.513C1004.6 253.513 1002.7 252.732 1001.34 251.17C1000 249.607 999.332 247.308 999.332 244.273V239.284C999.332 236.271 1000.01 233.983 1001.37 232.42C1002.74 230.858 1004.62 230.077 1007.03 230.077C1009.47 230.077 1011.36 230.858 1012.72 232.42C1014.09 233.983 1014.77 236.271 1014.77 239.284ZM1011.82 239.284C1011.82 236.963 1011.4 235.289 1010.55 234.262C1009.72 233.235 1008.55 232.722 1007.03 232.722C1005.54 232.722 1004.37 233.235 1003.52 234.262C1002.69 235.289 1002.28 236.963 1002.28 239.284V244.273C1002.28 246.572 1002.69 248.257 1003.52 249.328C1004.37 250.377 1005.54 250.902 1007.03 250.902C1008.55 250.902 1009.72 250.377 1010.55 249.328C1011.4 248.257 1011.82 246.572 1011.82 244.273V239.284Z" fill="#AFF0AA"/>
<defs>
<linearGradient id="paint0_linear_425_3" x1="37.8125" y1="-32.5926" x2="291.451" y2="621.844" gradientUnits="userSpaceOnUse">
<stop stop-color="#0B0822"/>
<stop offset="1" stop-color="#091E31"/>
</linearGradient>
</defs>
</svg>
